<svg viewBox="0 0 123.853 19.6851" xmlns="http://www.w3.org/2000/svg" xmlns:xlink="http://www.w3.org/1999/xlink" width="123.853027" height="19.685120" fill="none">
	<rect id="Layer_1" width="123.853035" height="19.685110" x="0.000000" y="0.000000" fill="rgb(255,255,255)" fill-opacity="0" />
	<path id="Vector" d="M104.387 6.76683L108.503 6.76683L108.503 13.5588L118.072 13.5588C118.527 13.5588 118.914 13.3947 119.234 13.0664C119.553 12.7382 119.713 12.3469 119.713 11.8923L119.713 5.78189C119.713 5.32728 119.553 4.93599 119.234 4.60777C118.914 4.27954 118.527 4.11543 118.072 4.11543L104.387 4.11543L104.387 -6.10352e-05L118.072 -6.10352e-05C119.654 -6.10352e-05 121.014 0.564044 122.15 1.69173C123.286 2.81967 123.854 4.18324 123.854 5.78215L123.854 11.8926C123.854 12.9364 123.593 13.9042 123.071 14.7962C122.549 15.6886 121.847 16.3912 120.963 16.9046C120.079 17.4183 119.115 17.6748 118.072 17.6748L104.387 17.6748L104.387 6.76709L104.387 6.76683Z" fill="rgb(255,255,255)" fill-rule="nonzero" />
	<path id="Vector" d="M98.9702 0.911011L98.9702 18.5853L94.8294 18.5853L84.1995 6.69296L84.1995 18.5853L80.084 18.5853L80.084 0.911011L84.1995 0.911011L94.8294 12.7274L94.8294 0.911011L98.9702 0.911011Z" fill="rgb(255,255,255)" fill-rule="nonzero" />
	<path id="Vector" d="M47.4484 7.29481L47.4484 13.7585C47.4484 15.3746 46.8843 16.7126 45.7566 17.7732C44.6286 18.8336 43.2651 19.364 41.6662 19.364L31.2888 19.364C29.6893 19.364 28.326 18.8339 27.1984 17.7732C26.0704 16.7128 25.5068 15.3746 25.5068 13.7585L25.5068 7.29481C25.5068 5.67874 26.0707 4.34077 27.1984 3.28037C28.326 2.21997 29.6893 1.68964 31.2888 1.68964L41.6662 1.68964C43.2651 1.68964 44.6286 2.21971 45.7566 3.28037C46.884 4.34077 47.4484 5.67901 47.4484 7.29481ZM43.3075 13.7585L43.3075 7.29481C43.3075 6.30195 42.7603 5.80512 41.6664 5.80512L31.289 5.80512C30.178 5.80512 29.6226 6.30195 29.6226 7.29481L29.6226 13.7585C29.6226 14.7519 30.178 15.2482 31.289 15.2482L41.6664 15.2482C42.7603 15.2482 43.3075 14.7519 43.3075 13.7585Z" fill="rgb(255,255,255)" fill-rule="nonzero" />
	<path id="Vector" d="M0.000488281 0.408936L16.1854 0.408936C17.8178 0.408936 19.2191 0.993885 20.3895 2.16378C21.5592 3.33395 22.1444 4.7392 22.1444 6.38033C22.1444 8.02146 21.5594 9.42723 20.3895 10.5971C19.2194 11.7673 17.8181 12.352 16.1854 12.352L11.6153 12.352L14.9229 18.0835L10.176 18.0835L6.8431 12.352L4.4698 8.21116L16.1854 8.21116C16.6735 8.21116 17.0983 8.03043 17.4603 7.66816C17.822 7.30617 18.0033 6.87266 18.0033 6.36766C18.0033 5.86266 17.8223 5.42942 17.4603 5.06742C17.098 4.70569 16.6733 4.52442 16.1854 4.52442L2.34873 4.52442L0.000488281 0.48466L0.000488281 0.408936Z" fill="rgb(255,255,255)" fill-rule="nonzero" />
	<path id="Vector" d="M74.5924 14.0796C74.5924 15.6957 74.0283 17.0337 72.9006 18.0943C71.7727 19.1547 70.4094 19.6851 68.8105 19.6851L58.4331 19.6851C56.817 19.6851 55.4492 19.155 54.33 18.0943C53.2102 17.0339 52.6509 15.6957 52.6509 14.0796L52.6509 2.01074L56.7666 2.01074L56.7666 14.0799C56.7666 15.0733 57.322 15.5696 58.4331 15.5696L68.8105 15.5696C69.9044 15.5696 70.4516 15.0733 70.4516 14.0799L70.4516 2.01074L74.5924 2.01074L74.5924 14.0799L74.5924 14.0796Z" fill="rgb(255,255,255)" fill-rule="nonzero" />
</svg>
